<svg width="26" height="26" viewBox="0 0 26 26" fill="none" xmlns="http://www.w3.org/2000/svg">
<path d="M17.3511 16.6666L17.2785 16.5966L16.8702 16.2028L16.7004 16.0392L16.8539 15.8602C18.5582 13.8718 19.4383 11.1605 18.9555 8.27703L17.3511 16.6666ZM17.3511 16.6666H17.452M17.3511 16.6666H17.452M17.452 16.6666H18.5002L24.6102 22.8055L24.6107 22.8059C25.1109 23.3062 25.1109 24.125 24.6107 24.6252C24.1104 25.1255 23.2916 25.1255 22.7913 24.6252L16.6666 18.5005V17.452V17.3511L16.5966 17.2785L16.2028 16.8702L16.0392 16.7004L15.8602 16.8539C13.8718 18.5582 11.1605 19.4383 8.27703 18.9555C4.33172 18.2885 1.17848 14.993 0.69603 11.0198L0.695985 11.0194C-0.0425085 5.01207 5.01207 -0.0425085 11.0194 0.695985L11.0198 0.696029M17.452 16.6666L11.0198 0.696029M11.0198 0.696029C14.9928 1.17847 18.2883 4.33152 18.9555 8.27665L11.0198 0.696029ZM3.0416 9.8541C3.0416 13.6234 6.08478 16.6666 9.8541 16.6666C13.6234 16.6666 16.6666 13.6234 16.6666 9.8541C16.6666 6.08478 13.6234 3.0416 9.8541 3.0416C6.08478 3.0416 3.0416 6.08478 3.0416 9.8541Z" fill="black" stroke="white" stroke-width="0.5"/>
</svg>
