<svg width="29" height="29" viewBox="0 0 29 29" fill="none" xmlns="http://www.w3.org/2000/svg">
<path d="M16.2977 14.6773L21.1469 19.5265L19.5265 21.1469L14.6773 16.2977L14.5005 16.1209L14.3237 16.2977L9.47449 21.1469L7.85404 19.5265L12.7033 14.6773L12.88 14.5005L12.7033 14.3237L7.85404 9.47449L9.47449 7.85404L14.3237 12.7033L14.5005 12.88L14.6773 12.7033L19.5265 7.85404L21.1469 9.47449L16.2977 14.3237L16.1209 14.5005L16.2977 14.6773ZM0.750488 14.5005C0.750488 6.89656 6.89656 0.750488 14.5005 0.750488C22.1044 0.750488 28.2505 6.89656 28.2505 14.5005C28.2505 22.1044 22.1044 28.2505 14.5005 28.2505C6.89656 28.2505 0.750488 22.1044 0.750488 14.5005ZM3.05049 14.5005C3.05049 20.8126 8.18842 25.9505 14.5005 25.9505C20.8126 25.9505 25.9505 20.8126 25.9505 14.5005C25.9505 8.18842 20.8126 3.05049 14.5005 3.05049C8.18842 3.05049 3.05049 8.18842 3.05049 14.5005Z" fill="black" stroke="white" stroke-width="0.5"/>
</svg>
